<svg width="18" height="18" viewBox="0 0 18 18" fill="none" xmlns="http://www.w3.org/2000/svg">
<path d="M17.71 16.29L14.31 12.9C15.407 11.5025 16.0022 9.77666 16 8C16 6.41775 15.5308 4.87103 14.6518 3.55544C13.7727 2.23985 12.5233 1.21447 11.0615 0.608967C9.59969 0.00346625 7.99116 -0.15496 6.43931 0.153721C4.88746 0.462403 3.462 1.22433 2.34318 2.34315C1.22436 3.46197 0.462434 4.88743 0.153752 6.43928C-0.15493 7.99113 0.00349677 9.59966 0.608998 11.0615C1.2145 12.5233 2.23988 13.7727 3.55547 14.6518C4.87107 15.5308 6.41778 16 8.00003 16C9.77669 16.0022 11.5025 15.407 12.9 14.31L16.29 17.71C16.383 17.8037 16.4936 17.8781 16.6155 17.9289C16.7373 17.9797 16.868 18.0058 17 18.0058C17.132 18.0058 17.2628 17.9797 17.3846 17.9289C17.5065 17.8781 17.6171 17.8037 17.71 17.71C17.8038 17.617 17.8782 17.5064 17.9289 17.3846C17.9797 17.2627 18.0058 17.132 18.0058 17C18.0058 16.868 17.9797 16.7373 17.9289 16.6154C17.8782 16.4936 17.8038 16.383 17.71 16.29ZM2.00003 8C2.00003 6.81332 2.35193 5.65328 3.01122 4.66658C3.6705 3.67989 4.60758 2.91085 5.70393 2.45673C6.80029 2.0026 8.00669 1.88378 9.17058 2.11529C10.3345 2.3468 11.4036 2.91825 12.2427 3.75736C13.0818 4.59648 13.6532 5.66558 13.8847 6.82946C14.1163 7.99335 13.9974 9.19975 13.5433 10.2961C13.0892 11.3925 12.3202 12.3295 11.3335 12.9888C10.3468 13.6481 9.18672 14 8.00003 14C6.40874 14 4.88261 13.3679 3.75739 12.2426C2.63218 11.1174 2.00003 9.5913 2.00003 8Z" fill="white"/>
</svg>
